<?xml version="1.0" encoding="UTF-8" standalone="no"?>
<!DOCTYPE svg PUBLIC "-//W3C//DTD SVG 1.1//EN"
 "http://www.w3.org/Graphics/SVG/1.1/DTD/svg11.dtd">
<!-- Generated by graphviz version 2.38.0 (20140413.2041)
 -->
<!-- Title: %3 Pages: 1 -->
<svg width="744pt" height="404pt"
 viewBox="0.00 0.00 743.79 404.00" xmlns="http://www.w3.org/2000/svg" xmlns:xlink="http://www.w3.org/1999/xlink">
<g id="graph0" class="graph" transform="scale(1 1) rotate(0) translate(4 400)">
<title>%3</title>
<polygon fill="white" stroke="none" points="-4,4 -4,-400 739.788,-400 739.788,4 -4,4"/>
<!-- golem -->
<g id="node1" class="node"><title>golem</title>
<ellipse fill="none" stroke="black" cx="316.645" cy="-378" rx="32.4942" ry="18"/>
<text text-anchor="middle" x="316.645" y="-374.3" font-family="Times New Roman,serif" font-size="14.00">golem</text>
</g>
<!-- golem.math -->
<g id="node2" class="node"><title>golem.math</title>
<ellipse fill="none" stroke="black" cx="52.6453" cy="-162" rx="52.7911" ry="18"/>
<text text-anchor="middle" x="52.6453" y="-158.3" font-family="Times New Roman,serif" font-size="14.00">golem.math</text>
</g>
<!-- golem&#45;&gt;golem.math -->
<g id="edge1" class="edge"><title>golem&#45;&gt;golem.math</title>
<path fill="none" stroke="black" d="M284.233,-375.8C217.961,-371.311 68.9694,-350.244 18.6453,-252 7.95262,-231.125 19.5363,-206.07 31.9994,-187.87"/>
<polygon fill="black" stroke="black" points="35.0172,-189.673 38.0945,-179.535 29.3667,-185.541 35.0172,-189.673"/>
</g>
<!-- golem.metrics -->
<g id="node3" class="node"><title>golem.metrics</title>
<ellipse fill="none" stroke="black" cx="595.645" cy="-234" rx="61.99" ry="18"/>
<text text-anchor="middle" x="595.645" y="-230.3" font-family="Times New Roman,serif" font-size="14.00">golem.metrics</text>
</g>
<!-- golem&#45;&gt;golem.metrics -->
<g id="edge2" class="edge"><title>golem&#45;&gt;golem.metrics</title>
<path fill="none" stroke="black" d="M348.701,-374.476C390.596,-369.924 464.944,-357.45 518.645,-324 532.469,-315.389 558.937,-282.988 576.94,-259.767"/>
<polygon fill="black" stroke="black" points="579.83,-261.749 583.15,-251.688 574.281,-257.483 579.83,-261.749"/>
</g>
<!-- golem.model -->
<g id="node4" class="node"><title>golem.model</title>
<ellipse fill="none" stroke="black" cx="451.645" cy="-306" rx="57.6901" ry="18"/>
<text text-anchor="middle" x="451.645" y="-302.3" font-family="Times New Roman,serif" font-size="14.00">golem.model</text>
</g>
<!-- golem&#45;&gt;golem.model -->
<g id="edge3" class="edge"><title>golem&#45;&gt;golem.model</title>
<path fill="none" stroke="black" d="M339.546,-365.125C359.868,-354.588 389.952,-338.989 413.839,-326.603"/>
<polygon fill="black" stroke="black" points="415.72,-329.57 422.987,-321.86 412.498,-323.356 415.72,-329.57"/>
</g>
<!-- golem.nn -->
<g id="node5" class="node"><title>golem.nn</title>
<ellipse fill="none" stroke="black" cx="338.645" cy="-234" rx="44.393" ry="18"/>
<text text-anchor="middle" x="338.645" y="-230.3" font-family="Times New Roman,serif" font-size="14.00">golem.nn</text>
</g>
<!-- golem&#45;&gt;golem.nn -->
<g id="edge4" class="edge"><title>golem&#45;&gt;golem.nn</title>
<path fill="none" stroke="black" d="M328.75,-360.781C335.463,-350.751 343.144,-337.292 346.645,-324 352.029,-303.559 349.416,-279.664 345.793,-261.783"/>
<polygon fill="black" stroke="black" points="349.206,-261.009 343.596,-252.021 342.377,-262.546 349.206,-261.009"/>
</g>
<!-- golem.optimizer -->
<g id="node6" class="node"><title>golem.optimizer</title>
<ellipse fill="none" stroke="black" cx="268.645" cy="-306" rx="68.7879" ry="18"/>
<text text-anchor="middle" x="268.645" y="-302.3" font-family="Times New Roman,serif" font-size="14.00">golem.optimizer</text>
</g>
<!-- golem&#45;&gt;golem.optimizer -->
<g id="edge5" class="edge"><title>golem&#45;&gt;golem.optimizer</title>
<path fill="none" stroke="black" d="M305.513,-360.765C299.745,-352.354 292.57,-341.89 286.087,-332.436"/>
<polygon fill="black" stroke="black" points="288.929,-330.392 280.387,-324.124 283.156,-334.351 288.929,-330.392"/>
</g>
<!-- golem.tensor -->
<g id="node8" class="node"><title>golem.tensor</title>
<ellipse fill="none" stroke="black" cx="247.645" cy="-90" rx="57.6901" ry="18"/>
<text text-anchor="middle" x="247.645" y="-86.3" font-family="Times New Roman,serif" font-size="14.00">golem.tensor</text>
</g>
<!-- golem&#45;&gt;golem.tensor -->
<g id="edge6" class="edge"><title>golem&#45;&gt;golem.tensor</title>
<path fill="none" stroke="black" d="M285.077,-373.476C255.072,-368.264 211.523,-355.431 190.645,-324 146.794,-257.982 199.643,-161.352 229.651,-116.11"/>
<polygon fill="black" stroke="black" points="232.592,-118.01 235.313,-107.77 226.8,-114.078 232.592,-118.01"/>
</g>
<!-- golem.data.common -->
<g id="node10" class="node"><title>golem.data.common</title>
<ellipse fill="#e6ffed" stroke="#bef5cb" cx="650.645" cy="-306" rx="85.2851" ry="18"/>
<text text-anchor="middle" x="650.645" y="-302.3" font-family="Times New Roman,serif" font-size="14.00">golem.data.common</text>
</g>
<!-- golem&#45;&gt;golem.data.common -->
<g id="edge20" class="edge"><title>golem&#45;&gt;golem.data.common</title>
<path fill="none" stroke="#2cbe4e" d="M346.58,-370.726C399.339,-359.669 510.125,-336.45 582.399,-321.303"/>
<polygon fill="#2cbe4e" stroke="#2cbe4e" points="583.263,-324.698 592.332,-319.221 581.827,-317.847 583.263,-324.698"/>
</g>
<!-- golem.trainer -->
<g id="node11" class="node"><title>golem.trainer</title>
<ellipse fill="#e6ffed" stroke="#bef5cb" cx="85.6453" cy="-234" rx="57.6901" ry="18"/>
<text text-anchor="middle" x="85.6453" y="-230.3" font-family="Times New Roman,serif" font-size="14.00">golem.trainer</text>
</g>
<!-- golem&#45;&gt;golem.trainer -->
<g id="edge21" class="edge"><title>golem&#45;&gt;golem.trainer</title>
<path fill="none" stroke="#2cbe4e" d="M285.92,-372.099C252.08,-365.549 197.222,-351.436 157.645,-324 133.566,-307.307 113.343,-280.326 100.52,-260.441"/>
<polygon fill="#2cbe4e" stroke="#2cbe4e" points="103.429,-258.492 95.1616,-251.867 97.493,-262.202 103.429,-258.492"/>
</g>
<!-- golem.math&#45;&gt;golem.tensor -->
<g id="edge7" class="edge"><title>golem.math&#45;&gt;golem.tensor</title>
<path fill="none" stroke="black" d="M87.5074,-148.485C119.35,-137.055 166.651,-120.075 201.594,-107.531"/>
<polygon fill="black" stroke="black" points="202.87,-110.792 211.1,-104.119 200.505,-104.203 202.87,-110.792"/>
</g>
<!-- golem.util -->
<g id="node9" class="node"><title>golem.util</title>
<ellipse fill="none" stroke="black" cx="291.645" cy="-18" rx="46.2923" ry="18"/>
<text text-anchor="middle" x="291.645" y="-14.3" font-family="Times New Roman,serif" font-size="14.00">golem.util</text>
</g>
<!-- golem.math&#45;&gt;golem.util -->
<g id="edge8" class="edge"><title>golem.math&#45;&gt;golem.util</title>
<path fill="none" stroke="black" d="M73.2449,-145.114C97.9829,-126.41 141.099,-94.9865 180.645,-72 203.644,-58.6323 230.542,-45.725 252.099,-35.9951"/>
<polygon fill="black" stroke="black" points="253.584,-39.1653 261.289,-31.8931 250.73,-32.7732 253.584,-39.1653"/>
</g>
<!-- golem.metrics&#45;&gt;golem.tensor -->
<g id="edge9" class="edge"><title>golem.metrics&#45;&gt;golem.tensor</title>
<path fill="none" stroke="black" d="M572.957,-217.109C544.094,-197.519 492.154,-164.332 443.645,-144 398.691,-125.157 345.114,-111.207 305.346,-102.361"/>
<polygon fill="black" stroke="black" points="306.063,-98.9354 295.547,-100.222 304.57,-105.774 306.063,-98.9354"/>
</g>
<!-- golem.model&#45;&gt;golem.nn -->
<g id="edge10" class="edge"><title>golem.model&#45;&gt;golem.nn</title>
<path fill="none" stroke="black" d="M426.847,-289.638C410.36,-279.425 388.549,-265.914 370.742,-254.883"/>
<polygon fill="black" stroke="black" points="372.188,-251.662 361.844,-249.371 368.502,-257.612 372.188,-251.662"/>
</g>
<!-- golem.model&#45;&gt;golem.tensor -->
<g id="edge11" class="edge"><title>golem.model&#45;&gt;golem.tensor</title>
<path fill="none" stroke="black" d="M452.334,-287.928C452.683,-255.502 448.708,-184.622 410.645,-144 385.476,-117.139 346.571,-103.862 313.082,-97.3129"/>
<polygon fill="black" stroke="black" points="313.344,-93.8042 302.884,-95.4888 312.112,-100.695 313.344,-93.8042"/>
</g>
<!-- golem.model&#45;&gt;golem.util -->
<g id="edge12" class="edge"><title>golem.model&#45;&gt;golem.util</title>
<path fill="none" stroke="black" d="M456.11,-287.953C458.58,-277.63 461.397,-264.153 462.645,-252 467.688,-202.887 464.642,-184.666 436.645,-144 406.153,-99.7087 356.288,-61.4744 323.716,-39.3316"/>
<polygon fill="black" stroke="black" points="325.277,-36.1656 315.018,-33.5212 321.389,-41.9864 325.277,-36.1656"/>
</g>
<!-- golem.random -->
<g id="node7" class="node"><title>golem.random</title>
<ellipse fill="none" stroke="black" cx="338.645" cy="-162" rx="63.0888" ry="18"/>
<text text-anchor="middle" x="338.645" y="-158.3" font-family="Times New Roman,serif" font-size="14.00">golem.random</text>
</g>
<!-- golem.nn&#45;&gt;golem.random -->
<g id="edge13" class="edge"><title>golem.nn&#45;&gt;golem.random</title>
<path fill="none" stroke="black" d="M338.645,-215.697C338.645,-207.983 338.645,-198.712 338.645,-190.112"/>
<polygon fill="black" stroke="black" points="342.145,-190.104 338.645,-180.104 335.145,-190.104 342.145,-190.104"/>
</g>
<!-- golem.nn&#45;&gt;golem.tensor -->
<g id="edge14" class="edge"><title>golem.nn&#45;&gt;golem.tensor</title>
<path fill="none" stroke="black" d="M311.799,-219.65C296.269,-210.56 277.674,-197.082 266.645,-180 254.754,-161.581 250.171,-136.98 248.468,-118.311"/>
<polygon fill="black" stroke="black" points="251.943,-117.832 247.764,-108.096 244.96,-118.313 251.943,-117.832"/>
</g>
<!-- golem.optimizer&#45;&gt;golem.nn -->
<g id="edge15" class="edge"><title>golem.optimizer&#45;&gt;golem.nn</title>
<path fill="none" stroke="black" d="M285.234,-288.411C294.255,-279.39 305.557,-268.088 315.439,-258.207"/>
<polygon fill="black" stroke="black" points="318.061,-260.534 322.657,-250.988 313.111,-255.584 318.061,-260.534"/>
</g>
<!-- golem.optimizer&#45;&gt;golem.tensor -->
<g id="edge16" class="edge"><title>golem.optimizer&#45;&gt;golem.tensor</title>
<path fill="none" stroke="black" d="M265.295,-287.694C260.804,-263.645 253.008,-218.707 249.645,-180 247.851,-159.344 247.388,-135.895 247.354,-118.254"/>
<polygon fill="black" stroke="black" points="250.854,-118.106 247.38,-108.097 243.854,-118.088 250.854,-118.106"/>
</g>
<!-- golem.random&#45;&gt;golem.tensor -->
<g id="edge17" class="edge"><title>golem.random&#45;&gt;golem.tensor</title>
<path fill="none" stroke="black" d="M317.539,-144.765C305.278,-135.333 289.661,-123.32 276.3,-113.042"/>
<polygon fill="black" stroke="black" points="278.383,-110.229 268.323,-106.906 274.115,-115.777 278.383,-110.229"/>
</g>
<!-- golem.random&#45;&gt;golem.util -->
<g id="edge18" class="edge"><title>golem.random&#45;&gt;golem.util</title>
<path fill="none" stroke="black" d="M334.776,-143.712C330.541,-125.612 323.203,-96.4721 314.645,-72 311.551,-63.1532 307.652,-53.7038 303.947,-45.2703"/>
<polygon fill="black" stroke="black" points="307.042,-43.6178 299.748,-35.9337 300.658,-46.4894 307.042,-43.6178"/>
</g>
<!-- golem.tensor&#45;&gt;golem.util -->
<g id="edge19" class="edge"><title>golem.tensor&#45;&gt;golem.util</title>
<path fill="none" stroke="black" d="M258.297,-72.055C263.485,-63.8006 269.833,-53.7014 275.593,-44.5378"/>
<polygon fill="black" stroke="black" points="278.734,-46.118 281.092,-35.789 272.807,-42.3928 278.734,-46.118"/>
</g>
<!-- golem.trainer&#45;&gt;golem.tensor -->
<g id="edge22" class="edge"><title>golem.trainer&#45;&gt;golem.tensor</title>
<path fill="none" stroke="#2cbe4e" d="M96.5857,-216.066C109.525,-196.942 132.505,-165.67 157.645,-144 172.827,-130.914 191.676,-119.248 208.196,-110.215"/>
<polygon fill="#2cbe4e" stroke="#2cbe4e" points="209.915,-113.265 217.096,-105.476 206.625,-107.087 209.915,-113.265"/>
</g>
</g>
</svg>
