<?xml version="1.0" encoding="UTF-8" standalone="no"?>
<!DOCTYPE svg PUBLIC "-//W3C//DTD SVG 1.1//EN"
 "http://www.w3.org/Graphics/SVG/1.1/DTD/svg11.dtd">
<!-- Generated by graphviz version 2.38.0 (20140413.2041)
 -->
<!-- Title: %3 Pages: 1 -->
<svg width="876pt" height="548pt"
 viewBox="0.00 0.00 875.89 548.00" xmlns="http://www.w3.org/2000/svg" xmlns:xlink="http://www.w3.org/1999/xlink">
<g id="graph0" class="graph" transform="scale(1 1) rotate(0) translate(4 544)">
<title>%3</title>
<polygon fill="white" stroke="none" points="-4,4 -4,-544 871.887,-544 871.887,4 -4,4"/>
<!-- golem -->
<g id="node1" class="node"><title>golem</title>
<ellipse fill="none" stroke="black" cx="412.142" cy="-522" rx="32.4942" ry="18"/>
<text text-anchor="middle" x="412.142" y="-518.3" font-family="Times New Roman,serif" font-size="14.00">golem</text>
</g>
<!-- golem.data.common -->
<g id="node2" class="node"><title>golem.data.common</title>
<ellipse fill="none" stroke="black" cx="85.1424" cy="-450" rx="85.2851" ry="18"/>
<text text-anchor="middle" x="85.1424" y="-446.3" font-family="Times New Roman,serif" font-size="14.00">golem.data.common</text>
</g>
<!-- golem&#45;&gt;golem.data.common -->
<g id="edge1" class="edge"><title>golem&#45;&gt;golem.data.common</title>
<path fill="none" stroke="black" d="M382.257,-514.602C330.563,-503.536 223.233,-480.561 152.724,-465.467"/>
<polygon fill="black" stroke="black" points="153.11,-461.97 142.599,-463.299 151.644,-468.815 153.11,-461.97"/>
</g>
<!-- golem.math -->
<g id="node3" class="node"><title>golem.math</title>
<ellipse fill="none" stroke="black" cx="587.142" cy="-234" rx="52.7911" ry="18"/>
<text text-anchor="middle" x="587.142" y="-230.3" font-family="Times New Roman,serif" font-size="14.00">golem.math</text>
</g>
<!-- golem&#45;&gt;golem.math -->
<g id="edge2" class="edge"><title>golem&#45;&gt;golem.math</title>
<path fill="none" stroke="black" d="M442.506,-515.262C475.099,-508.074 527.407,-493.492 566.142,-468 638.417,-420.437 665.929,-404.694 697.142,-324 702.915,-309.077 705.654,-301.548 697.142,-288 684.528,-267.92 661.933,-255.268 640.489,-247.388"/>
<polygon fill="black" stroke="black" points="641.352,-243.985 630.758,-244.093 639.107,-250.615 641.352,-243.985"/>
</g>
<!-- golem.metrics -->
<g id="node4" class="node"><title>golem.metrics</title>
<ellipse fill="none" stroke="black" cx="806.142" cy="-378" rx="61.99" ry="18"/>
<text text-anchor="middle" x="806.142" y="-374.3" font-family="Times New Roman,serif" font-size="14.00">golem.metrics</text>
</g>
<!-- golem&#45;&gt;golem.metrics -->
<g id="edge3" class="edge"><title>golem&#45;&gt;golem.metrics</title>
<path fill="none" stroke="black" d="M444.141,-518.456C514.735,-512.4 681.421,-495.547 730.142,-468 756.643,-453.017 778.156,-425.086 791.443,-404.496"/>
<polygon fill="black" stroke="black" points="794.479,-406.242 796.791,-395.903 788.535,-402.544 794.479,-406.242"/>
</g>
<!-- golem.model -->
<g id="node5" class="node"><title>golem.model</title>
<ellipse fill="none" stroke="black" cx="150.142" cy="-306" rx="57.6901" ry="18"/>
<text text-anchor="middle" x="150.142" y="-302.3" font-family="Times New Roman,serif" font-size="14.00">golem.model</text>
</g>
<!-- golem&#45;&gt;golem.model -->
<g id="edge4" class="edge"><title>golem&#45;&gt;golem.model</title>
<path fill="none" stroke="black" d="M379.688,-520.118C338.427,-517.34 267.157,-506.781 222.142,-468 181.464,-432.954 162.731,-370.376 154.965,-334.429"/>
<polygon fill="black" stroke="black" points="158.307,-333.297 152.895,-324.188 151.446,-334.684 158.307,-333.297"/>
</g>
<!-- golem.nn -->
<g id="node6" class="node"><title>golem.nn</title>
<ellipse fill="none" stroke="black" cx="317.142" cy="-234" rx="44.393" ry="18"/>
<text text-anchor="middle" x="317.142" y="-230.3" font-family="Times New Roman,serif" font-size="14.00">golem.nn</text>
</g>
<!-- golem&#45;&gt;golem.nn -->
<g id="edge5" class="edge"><title>golem&#45;&gt;golem.nn</title>
<path fill="none" stroke="black" d="M385.258,-511.566C364.307,-503.026 335.744,-488.609 317.142,-468 270.455,-416.274 269.21,-392.245 255.142,-324 251.912,-308.329 248.447,-302.532 255.142,-288 261.294,-274.649 272.65,-263.412 283.98,-254.768"/>
<polygon fill="black" stroke="black" points="286.041,-257.597 292.15,-248.94 281.976,-251.898 286.041,-257.597"/>
</g>
<!-- golem.optimizer -->
<g id="node7" class="node"><title>golem.optimizer</title>
<ellipse fill="none" stroke="black" cx="333.142" cy="-306" rx="68.7879" ry="18"/>
<text text-anchor="middle" x="333.142" y="-302.3" font-family="Times New Roman,serif" font-size="14.00">golem.optimizer</text>
</g>
<!-- golem&#45;&gt;golem.optimizer -->
<g id="edge6" class="edge"><title>golem&#45;&gt;golem.optimizer</title>
<path fill="none" stroke="black" d="M389.183,-509.113C373.503,-499.884 353.42,-485.692 341.142,-468 313.263,-427.827 314.276,-408.546 320.142,-360 321.181,-351.403 323.136,-342.188 325.219,-333.893"/>
<polygon fill="black" stroke="black" points="328.665,-334.558 327.869,-323.993 321.903,-332.748 328.665,-334.558"/>
</g>
<!-- golem.tensor -->
<g id="node9" class="node"><title>golem.tensor</title>
<ellipse fill="none" stroke="black" cx="449.142" cy="-90" rx="57.6901" ry="18"/>
<text text-anchor="middle" x="449.142" y="-86.3" font-family="Times New Roman,serif" font-size="14.00">golem.tensor</text>
</g>
<!-- golem&#45;&gt;golem.tensor -->
<g id="edge7" class="edge"><title>golem&#45;&gt;golem.tensor</title>
<path fill="none" stroke="black" d="M435.102,-509.113C450.782,-499.884 470.865,-485.692 483.142,-468 502.147,-440.615 499.428,-428.998 504.142,-396 518.909,-292.633 479.682,-170.714 459.836,-117.77"/>
<polygon fill="black" stroke="black" points="462.989,-116.216 456.147,-108.126 456.451,-118.717 462.989,-116.216"/>
</g>
<!-- golem.trainer -->
<g id="node10" class="node"><title>golem.trainer</title>
<ellipse fill="none" stroke="black" cx="630.142" cy="-306" rx="57.6901" ry="18"/>
<text text-anchor="middle" x="630.142" y="-302.3" font-family="Times New Roman,serif" font-size="14.00">golem.trainer</text>
</g>
<!-- golem&#45;&gt;golem.trainer -->
<g id="edge8" class="edge"><title>golem&#45;&gt;golem.trainer</title>
<path fill="none" stroke="black" d="M441.589,-514.278C468.944,-506.802 509.506,-492.435 537.142,-468 579.622,-430.441 607.592,-368.622 620.964,-333.52"/>
<polygon fill="black" stroke="black" points="624.316,-334.548 624.497,-323.955 617.749,-332.123 624.316,-334.548"/>
</g>
<!-- golem.models -->
<g id="node12" class="node"><title>golem.models</title>
<ellipse fill="#e6ffed" stroke="#bef5cb" cx="412.142" cy="-450" rx="61.99" ry="18"/>
<text text-anchor="middle" x="412.142" y="-446.3" font-family="Times New Roman,serif" font-size="14.00">golem.models</text>
</g>
<!-- golem&#45;&gt;golem.models -->
<g id="edge23" class="edge"><title>golem&#45;&gt;golem.models</title>
<path fill="none" stroke="#2cbe4e" d="M412.142,-503.697C412.142,-495.983 412.142,-486.712 412.142,-478.112"/>
<polygon fill="#2cbe4e" stroke="#2cbe4e" points="415.643,-478.104 412.142,-468.104 408.643,-478.104 415.643,-478.104"/>
</g>
<!-- golem.math&#45;&gt;golem.tensor -->
<g id="edge9" class="edge"><title>golem.math&#45;&gt;golem.tensor</title>
<path fill="none" stroke="black" d="M576.557,-216.135C564.308,-197.352 542.89,-166.656 520.142,-144 508.542,-132.447 494.314,-121.338 481.65,-112.302"/>
<polygon fill="black" stroke="black" points="483.387,-109.247 473.183,-106.398 479.383,-114.989 483.387,-109.247"/>
</g>
<!-- golem.util -->
<g id="node11" class="node"><title>golem.util</title>
<ellipse fill="none" stroke="black" cx="390.142" cy="-18" rx="46.2923" ry="18"/>
<text text-anchor="middle" x="390.142" y="-14.3" font-family="Times New Roman,serif" font-size="14.00">golem.util</text>
</g>
<!-- golem.math&#45;&gt;golem.util -->
<g id="edge10" class="edge"><title>golem.math&#45;&gt;golem.util</title>
<path fill="none" stroke="black" d="M583.903,-215.542C577.024,-183.091 558.03,-113.056 516.142,-72 495.196,-51.4692 465.106,-38.409 439.584,-30.3913"/>
<polygon fill="black" stroke="black" points="440.276,-26.946 429.694,-27.4593 438.287,-33.6573 440.276,-26.946"/>
</g>
<!-- golem.metrics&#45;&gt;golem.tensor -->
<g id="edge11" class="edge"><title>golem.metrics&#45;&gt;golem.tensor</title>
<path fill="none" stroke="black" d="M796.983,-360.115C772.964,-317.414 703.846,-204.243 615.142,-144 583.503,-122.512 542.63,-109.322 509.359,-101.475"/>
<polygon fill="black" stroke="black" points="509.821,-97.991 499.296,-99.2073 508.283,-104.82 509.821,-97.991"/>
</g>
<!-- golem.model&#45;&gt;golem.nn -->
<g id="edge12" class="edge"><title>golem.model&#45;&gt;golem.nn</title>
<path fill="none" stroke="black" d="M183.136,-291.17C210.465,-279.715 249.356,-263.414 278.207,-251.32"/>
<polygon fill="black" stroke="black" points="279.705,-254.487 287.575,-247.394 276.999,-248.032 279.705,-254.487"/>
</g>
<!-- golem.model&#45;&gt;golem.tensor -->
<g id="edge13" class="edge"><title>golem.model&#45;&gt;golem.tensor</title>
<path fill="none" stroke="black" d="M156.341,-288.053C170.295,-250.784 204.845,-163.469 229.142,-144 272.13,-109.555 334.024,-96.9425 381.219,-92.5797"/>
<polygon fill="black" stroke="black" points="381.677,-96.0539 391.357,-91.7472 381.104,-89.0774 381.677,-96.0539"/>
</g>
<!-- golem.model&#45;&gt;golem.util -->
<g id="edge14" class="edge"><title>golem.model&#45;&gt;golem.util</title>
<path fill="none" stroke="black" d="M151.339,-287.941C154.397,-256.154 165.027,-187.183 201.142,-144 242.791,-94.2025 309.278,-56.6648 351.277,-36.2732"/>
<polygon fill="black" stroke="black" points="352.842,-39.4043 360.364,-31.9429 349.831,-33.0851 352.842,-39.4043"/>
</g>
<!-- golem.random -->
<g id="node8" class="node"><title>golem.random</title>
<ellipse fill="none" stroke="black" cx="301.142" cy="-162" rx="63.0888" ry="18"/>
<text text-anchor="middle" x="301.142" y="-158.3" font-family="Times New Roman,serif" font-size="14.00">golem.random</text>
</g>
<!-- golem.nn&#45;&gt;golem.random -->
<g id="edge15" class="edge"><title>golem.nn&#45;&gt;golem.random</title>
<path fill="none" stroke="black" d="M313.269,-216.055C311.488,-208.261 309.33,-198.822 307.332,-190.079"/>
<polygon fill="black" stroke="black" points="310.731,-189.244 305.091,-180.275 303.907,-190.804 310.731,-189.244"/>
</g>
<!-- golem.nn&#45;&gt;golem.tensor -->
<g id="edge16" class="edge"><title>golem.nn&#45;&gt;golem.tensor</title>
<path fill="none" stroke="black" d="M334.757,-217.222C346.023,-206.915 360.787,-193.004 373.142,-180 393.168,-158.924 414.55,-133.604 429.517,-115.369"/>
<polygon fill="black" stroke="black" points="432.303,-117.49 435.914,-107.529 426.88,-113.064 432.303,-117.49"/>
</g>
<!-- golem.optimizer&#45;&gt;golem.nn -->
<g id="edge17" class="edge"><title>golem.optimizer&#45;&gt;golem.nn</title>
<path fill="none" stroke="black" d="M329.187,-287.697C327.424,-279.983 325.305,-270.712 323.34,-262.112"/>
<polygon fill="black" stroke="black" points="326.692,-261.073 321.052,-252.104 319.868,-262.633 326.692,-261.073"/>
</g>
<!-- golem.optimizer&#45;&gt;golem.tensor -->
<g id="edge18" class="edge"><title>golem.optimizer&#45;&gt;golem.tensor</title>
<path fill="none" stroke="black" d="M345.824,-288.253C353.307,-278.037 362.732,-264.566 370.142,-252 397.231,-206.064 423.436,-149.525 437.813,-117.134"/>
<polygon fill="black" stroke="black" points="441.055,-118.458 441.883,-107.896 434.649,-115.636 441.055,-118.458"/>
</g>
<!-- golem.random&#45;&gt;golem.tensor -->
<g id="edge19" class="edge"><title>golem.random&#45;&gt;golem.tensor</title>
<path fill="none" stroke="black" d="M332.168,-146.326C354.617,-135.708 385.14,-121.271 409.378,-109.807"/>
<polygon fill="black" stroke="black" points="411.121,-112.855 418.665,-105.415 408.128,-106.527 411.121,-112.855"/>
</g>
<!-- golem.random&#45;&gt;golem.util -->
<g id="edge20" class="edge"><title>golem.random&#45;&gt;golem.util</title>
<path fill="none" stroke="black" d="M311.701,-144.153C327.158,-119.493 356.063,-73.3738 374.14,-44.5327"/>
<polygon fill="black" stroke="black" points="377.252,-46.157 379.597,-35.825 371.321,-42.4395 377.252,-46.157"/>
</g>
<!-- golem.tensor&#45;&gt;golem.util -->
<g id="edge21" class="edge"><title>golem.tensor&#45;&gt;golem.util</title>
<path fill="none" stroke="black" d="M435.16,-72.411C427.813,-63.6933 418.669,-52.8454 410.546,-43.2077"/>
<polygon fill="black" stroke="black" points="413.145,-40.8606 404.024,-35.4699 407.793,-45.3719 413.145,-40.8606"/>
</g>
<!-- golem.trainer&#45;&gt;golem.tensor -->
<g id="edge22" class="edge"><title>golem.trainer&#45;&gt;golem.tensor</title>
<path fill="none" stroke="black" d="M640.164,-288.042C649.738,-269.448 661.082,-239.174 649.142,-216 619.229,-157.939 548.945,-123.703 500.213,-106.142"/>
<polygon fill="black" stroke="black" points="501.063,-102.732 490.468,-102.748 498.761,-109.343 501.063,-102.732"/>
</g>
<!-- golem.models.linear -->
<g id="node13" class="node"><title>golem.models.linear</title>
<ellipse fill="#e6ffed" stroke="#bef5cb" cx="412.142" cy="-378" rx="83.3857" ry="18"/>
<text text-anchor="middle" x="412.142" y="-374.3" font-family="Times New Roman,serif" font-size="14.00">golem.models.linear</text>
</g>
<!-- golem.models&#45;&gt;golem.models.linear -->
<g id="edge24" class="edge"><title>golem.models&#45;&gt;golem.models.linear</title>
<path fill="none" stroke="#2cbe4e" d="M412.142,-431.697C412.142,-423.983 412.142,-414.712 412.142,-406.112"/>
<polygon fill="#2cbe4e" stroke="#2cbe4e" points="415.643,-406.104 412.142,-396.104 408.643,-406.104 415.643,-406.104"/>
</g>
<!-- golem.models.linear&#45;&gt;golem.math -->
<g id="edge25" class="edge"><title>golem.models.linear&#45;&gt;golem.math</title>
<path fill="none" stroke="#2cbe4e" d="M434.451,-360.598C448.321,-350.281 466.441,-336.583 482.142,-324 509.591,-302.003 540.188,-275.878 561.238,-257.645"/>
<polygon fill="#2cbe4e" stroke="#2cbe4e" points="563.556,-260.267 568.812,-251.068 558.967,-254.982 563.556,-260.267"/>
</g>
<!-- golem.models.linear&#45;&gt;golem.nn -->
<g id="edge26" class="edge"><title>golem.models.linear&#45;&gt;golem.nn</title>
<path fill="none" stroke="#2cbe4e" d="M416.702,-359.92C420.748,-340.944 424.205,-310.076 411.142,-288 400.287,-269.655 380.513,-257.148 361.893,-248.913"/>
<polygon fill="#2cbe4e" stroke="#2cbe4e" points="363.182,-245.659 352.602,-245.097 360.523,-252.134 363.182,-245.659"/>
</g>
<!-- golem.models.linear&#45;&gt;golem.optimizer -->
<g id="edge27" class="edge"><title>golem.models.linear&#45;&gt;golem.optimizer</title>
<path fill="none" stroke="#2cbe4e" d="M393.421,-360.411C383.287,-351.432 370.603,-340.193 359.487,-330.344"/>
<polygon fill="#2cbe4e" stroke="#2cbe4e" points="361.536,-327.482 351.73,-323.47 356.893,-332.721 361.536,-327.482"/>
</g>
<!-- golem.models.linear&#45;&gt;golem.tensor -->
<g id="edge28" class="edge"><title>golem.models.linear&#45;&gt;golem.tensor</title>
<path fill="none" stroke="#2cbe4e" d="M418.818,-359.595C422.459,-349.377 426.709,-336.127 429.142,-324 443.868,-250.606 447.757,-162.072 448.78,-118.276"/>
<polygon fill="#2cbe4e" stroke="#2cbe4e" points="452.282,-118.21 448.983,-108.141 445.283,-118.069 452.282,-118.21"/>
</g>
<!-- golem.models.linear&#45;&gt;golem.trainer -->
<g id="edge29" class="edge"><title>golem.models.linear&#45;&gt;golem.trainer</title>
<path fill="none" stroke="#2cbe4e" d="M456.521,-362.75C492.862,-351.081 544.202,-334.596 581.625,-322.579"/>
<polygon fill="#2cbe4e" stroke="#2cbe4e" points="582.852,-325.861 591.303,-319.471 580.712,-319.196 582.852,-325.861"/>
</g>
</g>
</svg>
