<?xml version="1.0" encoding="UTF-8" standalone="no"?>
<!DOCTYPE svg PUBLIC "-//W3C//DTD SVG 1.1//EN"
 "http://www.w3.org/Graphics/SVG/1.1/DTD/svg11.dtd">
<!-- Generated by graphviz version 2.38.0 (20140413.2041)
 -->
<!-- Title: %3 Pages: 1 -->
<svg width="557pt" height="404pt"
 viewBox="0.00 0.00 556.77 404.00" xmlns="http://www.w3.org/2000/svg" xmlns:xlink="http://www.w3.org/1999/xlink">
<g id="graph0" class="graph" transform="scale(1 1) rotate(0) translate(4 400)">
<title>%3</title>
<polygon fill="white" stroke="none" points="-4,4 -4,-400 552.772,-400 552.772,4 -4,4"/>
<!-- golem -->
<g id="node1" class="node"><title>golem</title>
<ellipse fill="none" stroke="black" cx="228.645" cy="-378" rx="32.4942" ry="18"/>
<text text-anchor="middle" x="228.645" y="-374.3" font-family="Times New Roman,serif" font-size="14.00">golem</text>
</g>
<!-- golem.math -->
<g id="node2" class="node"><title>golem.math</title>
<ellipse fill="none" stroke="black" cx="52.6453" cy="-162" rx="52.7911" ry="18"/>
<text text-anchor="middle" x="52.6453" y="-158.3" font-family="Times New Roman,serif" font-size="14.00">golem.math</text>
</g>
<!-- golem&#45;&gt;golem.math -->
<g id="edge1" class="edge"><title>golem&#45;&gt;golem.math</title>
<path fill="none" stroke="black" d="M198.522,-370.88C171.517,-363.909 132.574,-349.954 108.645,-324 73.7412,-286.141 60.4143,-225.369 55.4579,-190.321"/>
<polygon fill="black" stroke="black" points="58.9193,-189.796 54.1738,-180.323 51.9764,-190.688 58.9193,-189.796"/>
</g>
<!-- golem.metrics -->
<g id="node3" class="node"><title>golem.metrics</title>
<ellipse fill="none" stroke="black" cx="212.645" cy="-234" rx="61.99" ry="18"/>
<text text-anchor="middle" x="212.645" y="-230.3" font-family="Times New Roman,serif" font-size="14.00">golem.metrics</text>
</g>
<!-- golem&#45;&gt;golem.metrics -->
<g id="edge2" class="edge"><title>golem&#45;&gt;golem.metrics</title>
<path fill="none" stroke="black" d="M216.94,-360.722C210.449,-350.671 203.023,-337.21 199.645,-324 194.374,-303.386 198.397,-279.502 203.314,-261.67"/>
<polygon fill="black" stroke="black" points="206.712,-262.524 206.248,-251.94 200.01,-260.503 206.712,-262.524"/>
</g>
<!-- golem.model -->
<g id="node4" class="node"><title>golem.model</title>
<ellipse fill="none" stroke="black" cx="460.645" cy="-306" rx="57.6901" ry="18"/>
<text text-anchor="middle" x="460.645" y="-302.3" font-family="Times New Roman,serif" font-size="14.00">golem.model</text>
</g>
<!-- golem&#45;&gt;golem.model -->
<g id="edge3" class="edge"><title>golem&#45;&gt;golem.model</title>
<path fill="none" stroke="black" d="M256.63,-368.556C294.772,-357.048 363.714,-336.247 410.804,-322.038"/>
<polygon fill="black" stroke="black" points="411.939,-325.352 420.502,-319.112 409.917,-318.65 411.939,-325.352"/>
</g>
<!-- golem.nn -->
<g id="node5" class="node"><title>golem.nn</title>
<ellipse fill="none" stroke="black" cx="374.645" cy="-234" rx="44.393" ry="18"/>
<text text-anchor="middle" x="374.645" y="-230.3" font-family="Times New Roman,serif" font-size="14.00">golem.nn</text>
</g>
<!-- golem&#45;&gt;golem.nn -->
<g id="edge4" class="edge"><title>golem&#45;&gt;golem.nn</title>
<path fill="none" stroke="black" d="M259.629,-372.415C288.807,-366.426 331.533,-353.044 355.645,-324 369.885,-306.848 374.2,-281.568 375.204,-262.329"/>
<polygon fill="black" stroke="black" points="378.709,-262.165 375.464,-252.08 371.712,-261.988 378.709,-262.165"/>
</g>
<!-- golem.optimizer -->
<g id="node6" class="node"><title>golem.optimizer</title>
<ellipse fill="none" stroke="black" cx="277.645" cy="-306" rx="68.7879" ry="18"/>
<text text-anchor="middle" x="277.645" y="-302.3" font-family="Times New Roman,serif" font-size="14.00">golem.optimizer</text>
</g>
<!-- golem&#45;&gt;golem.optimizer -->
<g id="edge5" class="edge"><title>golem&#45;&gt;golem.optimizer</title>
<path fill="none" stroke="black" d="M240.01,-360.765C245.898,-352.354 253.222,-341.89 259.84,-332.436"/>
<polygon fill="black" stroke="black" points="262.791,-334.323 265.659,-324.124 257.057,-330.309 262.791,-334.323"/>
</g>
<!-- golem.tensor -->
<g id="node8" class="node"><title>golem.tensor</title>
<ellipse fill="none" stroke="black" cx="321.645" cy="-90" rx="57.6901" ry="18"/>
<text text-anchor="middle" x="321.645" y="-86.3" font-family="Times New Roman,serif" font-size="14.00">golem.tensor</text>
</g>
<!-- golem&#45;&gt;golem.tensor -->
<g id="edge6" class="edge"><title>golem&#45;&gt;golem.tensor</title>
<path fill="none" stroke="black" d="M210.782,-362.855C177.771,-334.914 113.079,-270.617 141.645,-216 169.737,-162.291 232.573,-127.021 276.031,-108.04"/>
<polygon fill="black" stroke="black" points="277.424,-111.251 285.263,-104.124 274.691,-104.807 277.424,-111.251"/>
</g>
<!-- golem.math&#45;&gt;golem.tensor -->
<g id="edge7" class="edge"><title>golem.math&#45;&gt;golem.tensor</title>
<path fill="none" stroke="black" d="M93.2086,-150.445C139.992,-138.27 217.062,-118.215 268.576,-104.81"/>
<polygon fill="black" stroke="black" points="269.725,-108.127 278.521,-102.222 267.962,-101.353 269.725,-108.127"/>
</g>
<!-- golem.util -->
<g id="node9" class="node"><title>golem.util</title>
<ellipse fill="none" stroke="black" cx="375.645" cy="-18" rx="46.2923" ry="18"/>
<text text-anchor="middle" x="375.645" y="-14.3" font-family="Times New Roman,serif" font-size="14.00">golem.util</text>
</g>
<!-- golem.math&#45;&gt;golem.util -->
<g id="edge8" class="edge"><title>golem.math&#45;&gt;golem.util</title>
<path fill="none" stroke="black" d="M83.7804,-147.257C123.446,-129.755 194.122,-98.5883 254.645,-72 281.958,-60.0015 312.755,-46.5126 336.443,-36.1456"/>
<polygon fill="black" stroke="black" points="338.044,-39.2658 345.802,-32.0505 335.238,-32.8528 338.044,-39.2658"/>
</g>
<!-- golem.metrics&#45;&gt;golem.tensor -->
<g id="edge9" class="edge"><title>golem.metrics&#45;&gt;golem.tensor</title>
<path fill="none" stroke="black" d="M225.577,-216.153C244.67,-191.279 280.522,-144.574 302.618,-115.788"/>
<polygon fill="black" stroke="black" points="305.418,-117.889 308.73,-107.825 299.865,-113.626 305.418,-117.889"/>
</g>
<!-- golem.model&#45;&gt;golem.nn -->
<g id="edge10" class="edge"><title>golem.model&#45;&gt;golem.nn</title>
<path fill="none" stroke="black" d="M440.699,-288.765C429.058,-279.289 414.216,-267.209 401.551,-256.9"/>
<polygon fill="black" stroke="black" points="403.563,-254.025 393.598,-250.427 399.144,-259.454 403.563,-254.025"/>
</g>
<!-- golem.model&#45;&gt;golem.tensor -->
<g id="edge11" class="edge"><title>golem.model&#45;&gt;golem.tensor</title>
<path fill="none" stroke="black" d="M456.209,-287.817C450.995,-269.294 441.289,-239.329 427.645,-216 426.012,-213.207 373.174,-151.263 342.729,-115.645"/>
<polygon fill="black" stroke="black" points="345.035,-112.956 335.876,-107.63 339.714,-117.505 345.035,-112.956"/>
</g>
<!-- golem.model&#45;&gt;golem.util -->
<g id="edge12" class="edge"><title>golem.model&#45;&gt;golem.util</title>
<path fill="none" stroke="black" d="M479.81,-288.563C511.312,-259.455 568.041,-196.919 541.645,-144 515.482,-91.5479 455.664,-55.3248 415.448,-35.8585"/>
<polygon fill="black" stroke="black" points="416.72,-32.589 406.182,-31.5 413.741,-38.9233 416.72,-32.589"/>
</g>
<!-- golem.random -->
<g id="node7" class="node"><title>golem.random</title>
<ellipse fill="none" stroke="black" cx="469.645" cy="-162" rx="63.0888" ry="18"/>
<text text-anchor="middle" x="469.645" y="-158.3" font-family="Times New Roman,serif" font-size="14.00">golem.random</text>
</g>
<!-- golem.nn&#45;&gt;golem.random -->
<g id="edge13" class="edge"><title>golem.nn&#45;&gt;golem.random</title>
<path fill="none" stroke="black" d="M395.259,-217.811C408.214,-208.265 425.149,-195.787 439.586,-185.149"/>
<polygon fill="black" stroke="black" points="441.775,-187.883 447.75,-179.134 437.623,-182.248 441.775,-187.883"/>
</g>
<!-- golem.nn&#45;&gt;golem.tensor -->
<g id="edge14" class="edge"><title>golem.nn&#45;&gt;golem.tensor</title>
<path fill="none" stroke="black" d="M368.357,-216.153C359.282,-191.838 342.42,-146.66 331.631,-117.753"/>
<polygon fill="black" stroke="black" points="334.866,-116.413 328.09,-108.268 328.308,-118.86 334.866,-116.413"/>
</g>
<!-- golem.optimizer&#45;&gt;golem.nn -->
<g id="edge15" class="edge"><title>golem.optimizer&#45;&gt;golem.nn</title>
<path fill="none" stroke="black" d="M300.143,-288.765C313.71,-278.974 331.132,-266.401 345.717,-255.876"/>
<polygon fill="black" stroke="black" points="347.865,-258.642 353.926,-249.952 343.768,-252.966 347.865,-258.642"/>
</g>
<!-- golem.optimizer&#45;&gt;golem.tensor -->
<g id="edge16" class="edge"><title>golem.optimizer&#45;&gt;golem.tensor</title>
<path fill="none" stroke="black" d="M281.172,-287.849C288.799,-250.753 306.881,-162.81 316.073,-118.103"/>
<polygon fill="black" stroke="black" points="319.516,-118.732 318.102,-108.232 312.66,-117.323 319.516,-118.732"/>
</g>
<!-- golem.random&#45;&gt;golem.tensor -->
<g id="edge17" class="edge"><title>golem.random&#45;&gt;golem.tensor</title>
<path fill="none" stroke="black" d="M438.62,-146.326C416.171,-135.708 385.647,-121.271 361.41,-109.807"/>
<polygon fill="black" stroke="black" points="362.66,-106.527 352.123,-105.415 359.667,-112.855 362.66,-106.527"/>
</g>
<!-- golem.random&#45;&gt;golem.util -->
<g id="edge18" class="edge"><title>golem.random&#45;&gt;golem.util</title>
<path fill="none" stroke="black" d="M458.493,-144.153C442.169,-119.493 411.639,-73.3738 392.547,-44.5327"/>
<polygon fill="black" stroke="black" points="395.221,-42.2315 386.783,-35.825 389.384,-46.0955 395.221,-42.2315"/>
</g>
<!-- golem.tensor&#45;&gt;golem.util -->
<g id="edge19" class="edge"><title>golem.tensor&#45;&gt;golem.util</title>
<path fill="none" stroke="black" d="M334.443,-72.411C341.1,-63.7805 349.369,-53.0622 356.748,-43.4972"/>
<polygon fill="black" stroke="black" points="359.603,-45.5256 362.94,-35.4699 354.061,-41.25 359.603,-45.5256"/>
</g>
</g>
</svg>
